Coordinates
version=1
nRows=5
nColumns=40
inDegrees=yes

Units are S.I. units (second, meters, Newtons, ...)
Angles are in degrees.

endheader
time	pelvis_tilt	pelvis_list	pelvis_rotation	pelvis_tx	pelvis_ty	pelvis_tz	hip_flexion_r	hip_adduction_r	hip_rotation_r	knee_angle_r	knee_angle_r_beta	ankle_angle_r	subtalar_angle_r	mtp_angle_r	hip_flexion_l	hip_adduction_l	hip_rotation_l	knee_angle_l	knee_angle_l_beta	ankle_angle_l	subtalar_angle_l	mtp_angle_l	lumbar_extension	lumbar_bending	lumbar_rotation	arm_flex_r	arm_add_r	arm_rot_r	elbow_flex_r	pro_sup_r	wrist_flex_r	wrist_dev_r	arm_flex_l	arm_add_l	arm_rot_l	elbow_flex_l	pro_sup_l	wrist_flex_l	wrist_dev_l
      6.76000000	     -3.81319126	     -5.74506804	     -1.81952671	      0.98028402	      0.91842078	      0.50486507	     23.55168896	      2.69309797	    -13.25535466	     19.34170303	     19.34170303	      1.99033743	     -0.47017632	     -1.98408660	      2.66104500	    -12.14305668	     -9.09630624	     38.71895436	     38.71895436	     11.01668151	    -15.52153031	    -11.81728256	    -11.69316202	      5.96093579	      0.58409170	    -12.70310206	    -12.69653268	     -9.74264675	     27.41007567	     46.67266444	      0.00000000	      0.00000000	     15.94126714	    -18.00091759	     -9.44636223	     99.82835754	     48.41351927	      0.00000000	      0.00000000
      6.77171429	     -3.87908490	     -5.92931385	     -1.59129724	      0.98112563	      0.92007333	      0.50748352	     22.62658113	      3.07574572	    -13.49653507	     18.71654199	     18.71654199	      2.50926514	     -0.18468900	     -2.15000470	      4.78383510	    -12.92595297	     -8.04174216	     42.88294499	     42.88294499	      8.60197330	    -16.69801741	    -11.47259470	    -11.69850128	      6.03636471	      0.66543115	    -11.18693282	    -12.44649717	     -9.43582777	     28.15462100	     46.62573060	      0.00000000	      0.00000000	     15.25940368	    -17.59296742	     -8.92555944	     98.81600851	     48.36203899	      0.00000000	      0.00000000
      6.78342857	     -3.92156532	     -5.94971278	     -1.37951466	      0.98177661	      0.92166892	      0.50977425	     21.74120263	      3.23860753	    -13.79996923	     18.17970082	     18.17970082	      2.86763873	      0.26768327	     -2.76001249	      7.04966188	    -13.30002684	     -6.67225231	     47.09959838	     47.09959838	      6.87299377	    -17.56656595	     -8.68106368	    -11.67286939	      5.98690257	      0.84190399	     -9.82889216	    -12.37050270	     -8.29695802	     29.48067176	     46.48090332	      0.00000000	      0.00000000	     15.05042633	    -17.23213042	     -8.02868281	     96.24272300	     48.27327347	      0.00000000	      0.00000000
      6.79514286	     -4.00336214	     -6.09065182	     -1.18541246	      0.98228700	      0.92297419	      0.51201387	     20.85087952	      3.57277756	    -14.03028934	     17.53079856	     17.53079856	      3.28385446	      0.59066927	     -2.92028830	      9.39135556	    -13.83481286	     -5.46524455	     51.06669186	     51.06669186	      4.71244209	    -18.11243720	     -7.56151349	    -11.70280330	      6.04638217	      1.03348162	     -8.23242125	    -12.22567497	     -8.02851443	     30.40235519	     46.43270378	      0.00000000	      0.00000000	     14.37234698	    -16.69175526	     -7.41329690	     95.13974162	     48.21327899	      0.00000000	      0.00000000
      6.80685714	     -4.07535174	     -5.96691630	     -1.01567343	      0.98258110	      0.92423803	      0.51380249	     20.05211123	      3.54345592	    -14.36366791	     17.03878775	     17.03878775	      3.46035305	      1.25360102	     -3.83327305	     11.98089822	    -13.65824417	     -3.80948662	     55.23866513	     55.23866513	      5.12912060	    -17.94858988	      0.20113292	    -11.64108650	      5.84703697	      1.79478252	     -7.50942942	    -12.47870536	     -6.31884508	     32.95436392	     46.19601556	      0.00000000	      0.00000000	     14.75527897	    -15.99014029	     -5.95169817	     91.24437145	     48.07660643	      0.00000000	      0.00000000
